<svg xmlns="http://www.w3.org/2000/svg" height="24" viewBox="0 -960 960 960" width="24"><path d="M294.732-148.078q-28.257 0-48.263-20.006-20.006-20.006-20.006-48.263v-501.23h-39.192v-55.896h174.344v-33.833h237.577v33.769h174.345v55.96h-39.192v501.319q0 28.348-19.916 48.264-19.916 19.916-48.353 19.916H294.732Zm383.653-569.499H282.423v501.23q0 5.385 3.462 8.847 3.462 3.462 8.847 3.462h371.344q4.616 0 8.462-3.847 3.847-3.846 3.847-8.462v-501.23ZM380.193-282.923h55.961v-355.962h-55.961v355.962Zm144.461 0h55.96v-355.962h-55.96v355.962ZM282.423-717.577v513.539-513.539Z"/></svg>