<svg xmlns="http://www.w3.org/2000/svg" height="48" viewBox="0 -960 960 960" width="48"><path d="M191.346-161.154q-11.704 0-20.948-9.244t-9.244-20.948h30.192v30.192Zm-30.192-100.384v-102h30.192v102h-30.192Zm0-171.693v-94.423h30.192v94.423h-30.192Zm0-165v-100.231h30.192v100.231h-30.192Zm0-170.423q0-11.596 9.244-20.894 9.244-9.298 20.948-9.298v30.192h-30.192Zm100.384 607.5v-30.192h102.116v30.192H261.538Zm0-607.5v-30.192h102.116v30.192H261.538Zm172.308 607.5v-30.192h94.308v30.192h-94.308Zm0-607.5v-30.192h93.923v30.192h-93.923Zm164.115 607.5v-30.192h100.501v30.192H597.961Zm0-607.5v-30.192h100.501v30.192H597.961Zm170.693 607.5v-30.192h30.192q0 12.231-9.244 21.212-9.244 8.98-20.948 8.98Zm0-100.384v-102h30.192v102h-30.192Zm0-171.693v-94.808h30.192v94.808h-30.192Zm0-165v-100.231h30.192v100.231h-30.192Zm0-170.423v-30.192q11.711 0 20.952 9.298 9.24 9.298 9.24 20.894h-30.192Z"/></svg>